<?xml version="1.0" encoding="UTF-8"?>
<svg width="12px" height="12px" viewBox="0 0 12 12" version="1.1" xmlns="http://www.w3.org/2000/svg" xmlns:xlink="http://www.w3.org/1999/xlink">
    <!-- Generator: Sketch 56.2 (81672) - https://sketch.com -->
    <title>icon</title>
    <desc>Created with Sketch.</desc>
    <defs>
        <path d="M9.4143185,3.41458101 L12.5856815,6.58607097 C13.3692352,7.36965602 13.366788,8.63361097 12.5856815,9.41465944 L9.4143185,12.5857867 C8.63076481,13.3692821 7.36678804,13.3668351 6.5856815,12.5857867 L3.4143185,9.41465944 C2.63076481,8.63116401 2.63321196,7.36720878 3.4143185,6.58607097 L6.5856815,3.41458101 C7.36923519,2.63099595 8.63321196,2.6334432 9.4143185,3.41458101 Z M8,9.33333333 C8.368,9.33333333 8.66666667,9.03466667 8.66666667,8.66666667 L8.66666667,5.33333333 C8.66666667,4.96533333 8.368,4.66666667 8,4.66666667 C7.632,4.66666667 7.33333333,4.96533333 7.33333333,5.33333333 L7.33333333,8.66666667 C7.33333333,9.03466667 7.632,9.33333333 8,9.33333333 Z M8,11.3333333 C8.368,11.3333333 8.66666667,11.0346667 8.66666667,10.6666667 C8.66666667,10.2986667 8.368,10 8,10 C7.632,10 7.33333333,10.2986667 7.33333333,10.6666667 C7.33333333,11.0346667 7.632,11.3333333 8,11.3333333 Z" id="path-1"></path>
    </defs>
    <g id="Page-2" stroke="none" stroke-width="1" fill="none" fill-rule="evenodd">
        <g id="_part-/--ðšƒ-Help-text-/-Error" transform="translate(-2.000000, -2.000000)">
            <g id="standard/status/error">
                <mask id="mask-2" fill="white">
                    <use xlink:href="#path-1"></use>
                </mask>
                <use id="Combined-Shape" fill="#42526E" fill-rule="evenodd" xlink:href="#path-1"></use>
                <g id="Red-/-R400" mask="url(#mask-2)" fill="#DE350B" fill-rule="evenodd">
                    <rect id="R400" x="0" y="0" width="16" height="16"></rect>
                </g>
            </g>
        </g>
    </g>
</svg>